<?xml version="1.0" encoding="utf-8"?>
<!-- Generator: Adobe Illustrator 16.0.0, SVG Export Plug-In . SVG Version: 6.00 Build 0)  -->
<!DOCTYPE svg PUBLIC "-//W3C//DTD SVG 1.1//EN" "http://www.w3.org/Graphics/SVG/1.1/DTD/svg11.dtd">
<svg version="1.1" id="Capa_1" xmlns="http://www.w3.org/2000/svg" xmlns:xlink="http://www.w3.org/1999/xlink" x="0px" y="0px"
	 width="377.334px" height="377.333px" viewBox="-26.687 -66.137 377.334 377.333"
	 enable-background="new -26.687 -66.137 377.334 377.333" xml:space="preserve">
<circle opacity="0.7" fill="#FFFFFF" stroke="#F3C23C" stroke-width="10" stroke-miterlimit="10" cx="161.98" cy="122.529" r="183.667"/>
<g>
	<g>
		<path fill="#F3C23C" d="M183.82,161.372c-1.479,2.401-3.1,4.889-4.846,7.453c14.715,2.211,22.272,6.922,22.272,9.26
			c0,3.146-13.356,10.465-39.265,10.465c-25.909,0-39.268-7.317-39.268-10.465c0-2.338,7.537-7.063,22.27-9.26
			c-1.753-2.578-3.367-5.052-4.853-7.453c-14.537,2.758-25.632,8.377-25.632,16.741c0,12.265,23.895,18.658,47.48,18.658
			c23.597,0,47.479-6.416,47.479-18.658C209.449,169.749,198.367,164.114,183.82,161.372z"/>
		<path fill="#D80F32" d="M161.979,177.32c2.133,0,4.144-1.014,5.408-2.739c8.072-11.021,22.354-32.067,22.354-43.074
			c0-15.325-12.433-27.775-27.755-27.775c-15.336,0-27.772,12.436-27.772,27.775c0,11.007,14.284,32.054,22.357,43.074
			C157.833,176.309,159.847,177.32,161.979,177.32z M150.425,130.967c0-6.389,5.166-11.555,11.548-11.555
			c6.373,0,11.547,5.166,11.547,11.555c0,6.365-5.174,11.547-11.547,11.547C155.599,142.514,150.425,137.333,150.425,130.967z"/>
	</g>
</g>
<g>
	<path fill="#184978" d="M308.947,89.763c0.121-0.498,0.092-1.044-0.15-1.507l-14.494-29.445c0-0.014,0-0.014,0-0.014
		c-0.1-0.181-0.199-0.333-0.326-0.472c-0.043-0.036-0.096-0.079-0.137-0.125c-0.105-0.106-0.232-0.196-0.375-0.281
		c-0.031-0.024-0.061-0.053-0.086-0.066c-0.156-0.089-0.313-0.153-0.477-0.196l-51.309-13.752c-2.339-0.626-4.757,0.771-5.378,3.115
		l-26.739,99.771c-0.625,2.338,0.771,4.754,3.112,5.379l70.063,18.771c2.332,0.639,4.738-0.762,5.375-3.121l20.839-77.817
		C308.912,89.933,308.912,89.833,308.947,89.763z M222.289,116.018l18.186-67.85l49.183,13.185l-5.818,21.717
		c-0.313,1.166,0.377,2.38,1.548,2.699l18.76,5.017l-11.789,44.003L222.289,116.018z"/>
	<path fill="#F8AB18" d="M240.878,95.313c2.771,0.703,3.479-0.704,3.81-1.954c0.276-1.037,0.438-2.132,0.625-3.219
		c0.137-1.144,0.285-2.237,0.561-3.26c0.988-3.681,3.775-4.633,7.271-3.696l1.143,0.306l-0.76,2.835l-0.711-0.185
		c-2.047-0.547-3.049,0.397-3.566,2.331c-0.199,0.781-0.313,1.642-0.398,2.543c-0.153,0.888-0.242,1.876-0.51,2.9
		c-0.705,2.757-2.203,3.624-4.334,3.552l-0.023,0.085c1.877,1.017,2.738,2.544,1.97,5.279c-0.297,1.073-0.703,1.967-1.017,2.806
		c-0.383,0.823-0.731,1.62-0.93,2.417c-0.525,1.961-0.059,3.303,1.918,3.838l0.709,0.184l-0.754,2.8l-1.135-0.313
		c-3.426-0.91-5.484-2.979-4.412-6.949c0.271-0.979,0.684-2.045,1.113-3.069c0.414-1.037,0.781-2.018,1.066-3.041
		c0.307-1.145,0.44-2.843-2.306-3.624L240.878,95.313z"/>
	<path fill="#F8AB18" d="M285.206,109.943c-2.742-0.688-3.529,0.853-3.828,1.98c-0.271,1.031-0.397,2.096-0.553,3.19
		c-0.16,1.087-0.313,2.252-0.57,3.22c-1.063,4-3.907,4.768-7.332,3.843l-1.149-0.304l0.754-2.821l0.711,0.19
		c1.979,0.49,3.039-0.418,3.559-2.381c0.219-0.779,0.313-1.66,0.434-2.557c0.129-0.896,0.256-1.877,0.539-2.941
		c0.697-2.777,2.217-3.674,4.308-3.633l0.016-0.068c-1.834-1.018-2.69-2.521-1.918-5.267c0.271-1.03,0.654-1.947,0.994-2.771
		c0.342-0.852,0.703-1.641,0.908-2.43c0.512-1.933,0.114-3.24-1.902-3.809l-0.728-0.184l0.755-2.85l1.161,0.306
		c3.5,0.944,5.445,3.168,4.457,6.863c-0.274,1.031-0.717,2.061-1.143,3.133c-0.4,1.031-0.824,2.054-1.107,3.084
		c-0.342,1.265-0.397,2.851,2.322,3.625L285.206,109.943z"/>
	<g enable-background="new    ">
		<path fill="#FFFFFF" d="M222.484,137.426l0.49-1.826l5.065,1.357c-0.354,1.311-0.867,2.287-1.547,2.928
			c-0.683,0.641-1.529,1.059-2.556,1.256c-1.021,0.199-2.094,0.146-3.219-0.154c-1.955-0.524-3.314-1.448-4.078-2.774
			c-0.762-1.326-0.93-2.797-0.494-4.407c0.302-1.121,0.822-2.039,1.57-2.761c0.746-0.717,1.615-1.176,2.607-1.377
			s2.002-0.164,3.029,0.112c1.453,0.388,2.485,1.041,3.104,1.966l0.237-0.888l1.834,0.49l-1.028,3.842l-1.834-0.491
			c-0.019-0.699-0.265-1.313-0.731-1.837c-0.472-0.526-1.031-0.879-1.688-1.053c-0.854-0.229-1.672-0.125-2.442,0.322
			c-0.767,0.447-1.302,1.209-1.587,2.289c-0.329,1.23-0.272,2.254,0.173,3.064c0.44,0.811,1.106,1.334,1.993,1.572
			c0.652,0.174,1.234,0.161,1.753-0.039c0.518-0.201,0.93-0.563,1.247-1.082L222.484,137.426z"/>
		<path fill="#FFFFFF" d="M234.557,142.12l1.709,1.099c-1.113,1.02-2.5,1.305-4.164,0.858c-1.326-0.354-2.27-0.981-2.822-1.882
			c-0.559-0.897-0.684-1.918-0.379-3.059c0.312-1.16,0.955-2.027,1.933-2.6c0.976-0.57,2.056-0.701,3.242-0.383
			c0.86,0.231,1.545,0.648,2.055,1.252c0.513,0.604,0.806,1.262,0.871,1.975c0.067,0.715,0,1.471-0.215,2.268l-5.604-1.502
			c-0.147,0.695-0.063,1.238,0.26,1.629c0.318,0.39,0.701,0.646,1.14,0.763C233.154,142.691,233.814,142.553,234.557,142.12z
			 M234.725,139.665c0.058-0.437-0.012-0.836-0.205-1.205c-0.192-0.369-0.524-0.616-0.998-0.744
			c-0.881-0.235-1.526,0.134-1.942,1.104L234.725,139.665z"/>
		<path fill="#FFFFFF" d="M240.963,146.452c-1.109-0.298-1.949-0.897-2.529-1.808c-0.574-0.906-0.699-1.971-0.369-3.194
			c0.328-1.222,0.968-2.082,1.916-2.58c0.957-0.498,1.982-0.599,3.097-0.302c1.114,0.302,1.957,0.902,2.53,1.808
			c0.572,0.908,0.697,1.974,0.369,3.194c-0.322,1.209-0.957,2.066-1.899,2.576C243.129,146.652,242.092,146.754,240.963,146.452z
			 M241.455,144.583c0.445,0.121,0.852,0.045,1.221-0.222c0.371-0.269,0.65-0.769,0.85-1.497c0.173-0.644,0.173-1.181-0.002-1.613
			c-0.174-0.433-0.491-0.709-0.95-0.832c-0.99-0.267-1.677,0.315-2.062,1.746c-0.156,0.586-0.162,1.104-0.02,1.551
			C240.639,144.161,240.957,144.452,241.455,144.583z"/>
		<path fill="#FFFFFF" d="M244.621,150.605l0.525-1.959c0.28,0.17,0.541,0.287,0.774,0.351c0.431,0.112,0.771,0.08,1.021-0.11
			c0.248-0.188,0.453-0.582,0.615-1.183l2.324-8.679l-1.609-0.43l0.49-1.828l5.893,1.58l-0.489,1.826l-1.47-0.396l-2.352,8.777
			c-0.322,1.2-0.854,2.017-1.59,2.438c-0.736,0.42-1.592,0.504-2.561,0.242C245.709,151.105,245.186,150.896,244.621,150.605z"/>
		<path fill="#FFFFFF" d="M252.787,149.436l0.986-3.686l1.836,0.492c-0.16,0.68-0.115,1.223,0.127,1.631
			c0.248,0.406,0.586,0.668,1.01,0.781c0.33,0.09,0.643,0.049,0.934-0.121c0.289-0.169,0.475-0.41,0.559-0.723
			c0.089-0.33,0.054-0.64-0.108-0.925c-0.162-0.286-0.504-0.649-1.019-1.098c-1.088-0.937-1.795-1.696-2.116-2.277
			c-0.324-0.581-0.382-1.266-0.17-2.049c0.252-0.946,0.743-1.601,1.475-1.959c0.729-0.362,1.472-0.44,2.224-0.241
			c0.856,0.231,1.434,0.746,1.729,1.543l0.24-0.896l1.824,0.488l-0.881,3.289l-1.824-0.49c0.076-0.523,0.008-0.963-0.211-1.316
			c-0.219-0.355-0.521-0.586-0.912-0.689c-0.301-0.08-0.576-0.067-0.824,0.037c-0.248,0.105-0.412,0.289-0.479,0.547
			c-0.063,0.222-0.033,0.457,0.086,0.703c0.116,0.246,0.545,0.662,1.274,1.25c0.703,0.57,1.229,1.056,1.578,1.459
			c0.351,0.402,0.588,0.865,0.715,1.392c0.125,0.526,0.104,1.09-0.055,1.692c-0.287,1.066-0.813,1.787-1.582,2.16
			c-0.763,0.375-1.574,0.445-2.425,0.217c-0.946-0.252-1.584-0.799-1.907-1.641l-0.246,0.922L252.787,149.436z"/>
		<path fill="#FFFFFF" d="M270.223,142.334c1.863,0.5,3.189,1.432,3.971,2.797c0.783,1.365,0.964,2.822,0.548,4.371
			c-0.416,1.555-1.304,2.727-2.666,3.516c-1.357,0.787-2.972,0.933-4.83,0.435c-1.937-0.519-3.271-1.47-4.011-2.853
			c-0.741-1.387-0.911-2.824-0.512-4.315c0.414-1.544,1.297-2.716,2.652-3.511C266.73,141.977,268.346,141.833,270.223,142.334z
			 M269.693,144.309c-0.828-0.221-1.615-0.1-2.363,0.366c-0.744,0.468-1.273,1.304-1.598,2.507
			c-0.283,1.062-0.229,1.986,0.172,2.777c0.397,0.789,1.02,1.3,1.867,1.523c0.828,0.223,1.617,0.102,2.358-0.371
			c0.752-0.469,1.283-1.291,1.599-2.467c0.282-1.052,0.231-1.979-0.146-2.78C271.201,145.064,270.574,144.545,269.693,144.309z"/>
		<path fill="#FFFFFF" d="M274.508,155.254l0.488-1.826l1.445,0.389l1.92-7.159l-1.447-0.388l0.492-1.828l4.543,1.22l2.17,7.81
			l1.318-4.918l-1.408-0.377l0.492-1.828l4.85,1.301l-0.49,1.828l-1.516-0.406l-2.428,9.063l-2.41-0.646l-2.521-9.266l-1.637,6.11
			l1.358,0.362l-0.487,1.828L274.508,155.254z"/>
	</g>
	<path fill="#00ABD8" d="M250.768,95.562l17.485,8.477c0.19,0.092,0.463,0.135,0.584,0.049l8.74-4.533c0,0,0.528-0.157-0.095-0.454
		c-0.612-0.299-17.338-8.413-17.338-8.413c-0.213-0.1-0.471-0.128-0.582-0.071l-8.961,4.654
		C250.497,95.333,250.54,95.462,250.768,95.562z M260.503,91.824l15.146,7.347l-5.891,3.055l-1.086-0.54
		c0.328-0.81,0.908-1.919-0.482-2.402c-1.621-0.567-4.276,0.113-4.276,0.113s1.467-1.507,0.66-3.083
		c-0.814-1.577-7.313-0.149-7.313-0.149l-2.645-1.28L260.503,91.824z"/>
	<path fill="#0067A6" d="M269.448,97.97c0.282,0.149,0.555,0.255,0.815,0.348c0.185,0.17,0.467,0.355,0.838,0.519
		c0.912,0.448,1.926,0.661,2.238,0.49c0.326-0.162-0.148-0.668-1.059-1.101c-0.355-0.164-0.705-0.306-1.029-0.405
		c-0.053-0.071-0.15-0.171-0.32-0.255l-0.242-0.1c-0.307-0.156-0.684-0.199-0.889-0.134c-0.787-0.334-1.498-0.513-1.67-0.419
		C267.907,97.039,268.497,97.509,269.448,97.97z"/>
	<path fill="#EFC028" d="M267.354,109.645l8.737-4.533c0,0,0.525-0.155-0.102-0.448c-0.142-0.093-1.207-0.597-2.74-1.343
		l-3.994,2.077c-0.461,0.239-0.967,0.146-1.207,0.084c-0.143-0.043-0.258-0.084-0.375-0.127l-14.118-6.851l-4.431,2.316
		c-0.135,0.071-0.063,0.192,0.149,0.298l17.486,8.456C266.954,109.672,267.225,109.702,267.354,109.645z"/>
	<path fill="#F2572D" d="M275.04,110.424c-0.153-0.063-1.209-0.588-2.758-1.32l-4,2.076c-0.462,0.227-0.943,0.148-1.207,0.092
		c-0.138-0.037-0.248-0.092-0.363-0.149l-14.108-6.826l-4.449,2.31c-0.113,0.041-0.041,0.186,0.147,0.297l17.492,8.457
		c0.192,0.1,0.465,0.127,0.584,0.057l8.731-4.533C275.109,110.879,275.665,110.73,275.04,110.424z"/>
</g>
<g>
	<path d="M89.846,125.261c-1.293,0.343-2.104,0.669-2.57,0.925l4.505,16.789c0.522-0.021,1.325-0.229,2.042-0.434
		c5.263-1.373,7.92-5.188,6.275-11.313C98.708,125.9,94.836,123.934,89.846,125.261z"/>
	<path fill="#184978" d="M95.113,66.336c-0.146-0.494-0.43-0.938-0.874-1.235L67.085,46.917h-0.014
		c-0.158-0.11-0.332-0.188-0.516-0.241c-0.051-0.016-0.102-0.029-0.154-0.042c-0.151-0.043-0.305-0.058-0.457-0.058
		c-0.046-0.007-0.094-0.018-0.13-0.007c-0.16,0-0.332,0.028-0.498,0.071l-51.09,13.685c-2.328,0.636-3.716,3.026-3.092,5.365
		l26.631,99.361c0.627,2.33,3.028,3.732,5.354,3.104l69.777-18.699c2.321-0.625,3.712-3.006,3.093-5.352L95.215,66.592
		C95.178,66.489,95.149,66.412,95.113,66.336z M33.449,132.12L15.348,64.545L64.32,51.422l5.799,21.636
		c0.314,1.165,1.514,1.857,2.688,1.552l18.677-5.009l11.732,43.823L33.449,132.12z"/>
	<path fill="#00ABD8" d="M35.108,94.835l31.68-2.302c0.365-0.027,0.755-0.198,0.88-0.396l8.664-13.572c0,0,0.624-0.655-0.484-0.569
		c-1.113,0.086-31.417,2.267-31.417,2.267c-0.38,0.022-0.774,0.193-0.895,0.385L34.657,94.56
		C34.532,94.722,34.732,94.857,35.108,94.835z M45.819,81.62l27.46-2.004l-5.819,9.125l-2.014,0.142
		c-0.194-1.421-0.273-3.453-2.638-3.013c-2.763,0.519-5.991,3.652-5.991,3.652s0.875-3.325-1.571-4.903
		c-2.434-1.576-10.46,5.771-10.46,5.771l-4.79,0.354L45.819,81.62z"/>
	<path fill="#0067A6" d="M63.515,82.949c0.508-0.035,0.994-0.092,1.447-0.164c0.422,0.072,0.976,0.086,1.623,0.043
		c1.645-0.121,3.243-0.625,3.563-1.137c0.318-0.497-0.758-0.81-2.4-0.696c-0.629,0.042-1.238,0.156-1.774,0.284
		c-0.13-0.093-0.359-0.134-0.658-0.114l-0.434,0.036c-0.553,0.043-1.13,0.284-1.361,0.561c-1.392,0.17-2.538,0.498-2.726,0.782
		C60.58,82.885,61.795,83.07,63.515,82.949z"/>
	<path fill="#EFC028" d="M70.092,101.209l8.664-13.577c0,0,0.625-0.647-0.486-0.57c-0.277,0.015-2.207,0.158-4.984,0.37
		l-3.957,6.195c-0.45,0.711-1.222,1.009-1.637,1.109c-0.205,0.057-0.425,0.093-0.634,0.114l-25.563,1.862l-4.409,6.899
		c-0.117,0.191,0.083,0.319,0.459,0.29l31.671-2.301C69.585,101.565,69.98,101.388,70.092,101.209z"/>
	<path fill="#F2572D" d="M81.609,96.044c-0.263,0.028-2.198,0.157-4.979,0.356l-3.963,6.21c-0.453,0.71-1.223,1.002-1.639,1.108
		c-0.203,0.057-0.429,0.098-0.633,0.113L44.829,105.7l-4.41,6.899c-0.109,0.187,0.097,0.313,0.459,0.284l31.678-2.304
		c0.373-0.027,0.772-0.196,0.896-0.396l8.657-13.58C82.104,96.613,82.737,95.959,81.609,96.044z"/>
	<g enable-background="new    ">
		<path fill="#FFFFFF" d="M49.311,157.111l-1.769-6.604l3.289-0.881c0.361,1.194,0.915,2.002,1.664,2.414
			c0.746,0.412,1.5,0.517,2.265,0.312c0.591-0.16,1.039-0.5,1.337-1.021c0.298-0.521,0.372-1.063,0.224-1.621
			c-0.161-0.598-0.497-1.041-1.001-1.338c-0.509-0.297-1.362-0.563-2.563-0.793c-2.53-0.479-4.308-1.026-5.331-1.641
			c-1.023-0.613-1.724-1.623-2.099-3.027c-0.454-1.695-0.276-3.148,0.535-4.363c0.81-1.215,1.888-2.002,3.234-2.363
			c1.541-0.414,2.898-0.129,4.067,0.846l-0.433-1.608l3.276-0.879l1.58,5.896l-3.275,0.877c-0.347-0.881-0.848-1.5-1.507-1.857
			c-0.659-0.355-1.336-0.439-2.034-0.254c-0.539,0.145-0.957,0.41-1.248,0.797c-0.295,0.389-0.382,0.813-0.257,1.277
			c0.107,0.399,0.362,0.736,0.763,1.014c0.404,0.275,1.438,0.541,3.1,0.799c1.606,0.254,2.86,0.537,3.763,0.85
			c0.903,0.312,1.69,0.818,2.354,1.521c0.667,0.703,1.145,1.596,1.434,2.674c0.513,1.914,0.343,3.506-0.515,4.771
			c-0.856,1.266-2.045,2.104-3.568,2.512c-1.7,0.455-3.178,0.176-4.436-0.836l0.441,1.65L49.311,157.111z"/>
		<path fill="#FFFFFF" d="M63.987,153.178l-0.878-3.273l2.426-0.649l-3.438-12.836l-2.426,0.649l-0.878-3.274l9.366-2.51
			l0.877,3.274l-2.033,0.545l1.139,4.25l5.283-1.414l-1.141-4.25l-1.965,0.525l-0.878-3.273l9.295-2.489l0.878,3.274l-2.424,0.648
			l3.44,12.836l2.424-0.648l0.877,3.273l-9.298,2.49l-0.875-3.275l1.963-0.525l-1.416-5.295l-5.283,1.416l1.418,5.295l2.036-0.545
			l0.877,3.273L63.987,153.178z"/>
		<path fill="#FFFFFF" d="M94.982,141.364l0.878,3.276l-10.213,2.734l-0.881-3.273l2.467-0.66l-3.439-12.836l-2.465,0.66
			l-0.88-3.272l10.217-2.736c2.378-0.637,4.364-0.573,5.961,0.195c1.594,0.769,2.646,2.094,3.148,3.979
			c0.289,1.076,0.323,2.115,0.104,3.115c-0.223,1-0.623,1.83-1.209,2.49c-0.584,0.66-1.312,1.199-2.181,1.615
			c-0.871,0.416-1.99,0.811-3.366,1.178l-1.854,0.498l1.009,3.762L94.982,141.364z M90.403,135.093l0.754-0.202
			c1.729-0.463,2.765-1.041,3.109-1.738c0.348-0.694,0.409-1.461,0.187-2.297c-0.192-0.707-0.522-1.262-1-1.666
			c-0.478-0.405-0.954-0.604-1.433-0.604c-0.475,0.002-1.22,0.141-2.232,0.412l-0.949,0.252L90.403,135.093z"/>
	</g>
</g>
<path fill="#38B1E0" d="M116.671,57.853l-1.82,5.087c17.689-13.301,33.888-10.349,48.022-5.664l-4.553,12.669
	c-0.468,1.293-0.444,2.771,0.202,4.125c0.631,1.354,1.76,2.32,3.061,2.789c1.313,0.455,2.788,0.433,4.138-0.199l43.389-20.087
	l-20.676-43.104c-0.635-1.346-1.763-2.32-3.063-2.785c-1.313-0.473-2.792-0.444-4.13,0.195c-1.369,0.64-2.308,1.762-2.782,3.062
	l-4.688,13.032C149.938,21.271,125.153,34.248,116.671,57.853z"/>
<g>
	<path fill="#A0A0A0" d="M8.243,217.683v-1.836h1.633v-7.195H8.243v2.531H6.376v-4.367h9.852v4.367h-1.844v-2.531h-1.68v7.195h1.633
		v1.836H8.243z"/>
	<path fill="#A0A0A0" d="M17.149,217.683v-1.742h1.219v-7.383h-1.219v-1.742h3.625v3.914c0.76-0.531,1.477-0.797,2.148-0.797
		c1.547,0,2.32,0.93,2.32,2.789v3.219h1.109v1.742h-3.523v-4.852c0-0.354-0.064-0.598-0.191-0.73
		c-0.128-0.133-0.319-0.199-0.574-0.199c-0.359,0-0.789,0.159-1.289,0.477v3.563h1.078v1.742H17.149z"/>
	<path fill="#A0A0A0" d="M27.384,211.862v-1.742h3.563v5.82h1.125v1.742h-4.688v-1.742h1.148v-4.078H27.384z M28.446,207.952
		c0-0.363,0.129-0.675,0.387-0.935s0.569-0.39,0.934-0.39c0.37,0,0.682,0.13,0.938,0.39c0.255,0.26,0.383,0.571,0.383,0.935
		s-0.129,0.674-0.387,0.931s-0.569,0.386-0.934,0.386c-0.359,0-0.669-0.13-0.93-0.39C28.576,208.619,28.446,208.311,28.446,207.952z
		"/>
	<path fill="#A0A0A0" d="M33.306,217.683v-2.602h1.766c0.016,0.354,0.18,0.637,0.492,0.848s0.698,0.316,1.156,0.316
		c0.396,0,0.704-0.069,0.926-0.207c0.221-0.138,0.332-0.313,0.332-0.527c0-0.198-0.102-0.352-0.305-0.461s-0.602-0.214-1.195-0.313
		c-1.224-0.198-2.106-0.5-2.648-0.903c-0.542-0.403-0.813-0.938-0.813-1.604c0-0.625,0.255-1.151,0.766-1.581
		c0.51-0.43,1.188-0.645,2.031-0.645c0.682,0,1.32,0.126,1.914,0.379v-0.262h1.727v2.195h-1.727
		c-0.156-0.526-0.708-0.789-1.656-0.789c-0.698,0-1.047,0.192-1.047,0.578c0,0.146,0.071,0.257,0.215,0.332
		c0.143,0.075,0.509,0.165,1.098,0.27c0.932,0.161,1.63,0.322,2.094,0.484c0.463,0.161,0.834,0.428,1.113,0.801
		c0.278,0.372,0.418,0.819,0.418,1.34c0,0.739-0.265,1.345-0.793,1.816c-0.529,0.472-1.277,0.707-2.246,0.707
		c-0.901,0-1.519-0.184-1.852-0.551v0.379H33.306z"/>
	<path fill="#A0A0A0" d="M52.915,210.12v3.07h-1.719c-0.391-0.844-1.003-1.266-1.836-1.266c-0.531,0-0.955,0.176-1.27,0.527
		c-0.315,0.352-0.473,0.821-0.473,1.41c0,0.714,0.167,1.241,0.5,1.582c0.333,0.341,0.742,0.512,1.227,0.512
		c0.385,0,0.75-0.11,1.094-0.332s0.62-0.515,0.828-0.879l1.875,0.824c-0.698,1.523-1.922,2.285-3.672,2.285
		c-1.318,0-2.369-0.359-3.152-1.078c-0.784-0.719-1.176-1.68-1.176-2.883s0.384-2.152,1.152-2.848
		c0.768-0.695,1.663-1.043,2.684-1.043c0.817,0,1.581,0.247,2.289,0.742v-0.625H52.915z"/>
	<path fill="#A0A0A0" d="M58.126,217.854c-1.115,0-2.056-0.353-2.824-1.059c-0.769-0.706-1.152-1.673-1.152-2.902
		s0.384-2.196,1.152-2.902c0.768-0.706,1.709-1.059,2.824-1.059c1.12,0,2.063,0.353,2.828,1.059s1.148,1.673,1.148,2.902
		c0,1.214-0.379,2.177-1.137,2.891S59.261,217.854,58.126,217.854z M58.118,215.979c0.448,0,0.811-0.172,1.09-0.516
		c0.278-0.344,0.418-0.883,0.418-1.617c0-0.646-0.136-1.149-0.406-1.512c-0.271-0.362-0.638-0.543-1.102-0.543
		c-0.995,0-1.492,0.719-1.492,2.156c0,0.589,0.124,1.074,0.371,1.457C57.244,215.788,57.618,215.979,58.118,215.979z"/>
	<path fill="#A0A0A0" d="M63.282,211.862v-1.742h3.57v0.703c0.729-0.547,1.469-0.82,2.219-0.82c1.526,0,2.289,0.974,2.289,2.922
		v3.016h1.141v1.742h-3.555v-4.578c0-0.411-0.056-0.692-0.168-0.844c-0.112-0.151-0.296-0.227-0.551-0.227
		c-0.448,0-0.906,0.164-1.375,0.492v3.414h1.164v1.742h-4.734v-1.742h1.156v-4.078H63.282z"/>
	<path fill="#A0A0A0" d="M76.087,217.792l-2.555-5.93h-1.094v-1.742h4.586v1.742h-0.94l1.185,3.442l1.389-3.442h-0.993v-1.742h4.008
		v1.742h-1.078l-2.453,5.93H76.087z"/>
	<path fill="#A0A0A0" d="M87.907,215.401l1.875,0.602c-0.787,1.234-2.016,1.852-3.688,1.852c-1.333,0-2.374-0.352-3.121-1.055
		c-0.748-0.703-1.121-1.628-1.121-2.773c0-1.167,0.385-2.141,1.156-2.922c0.771-0.781,1.752-1.172,2.945-1.172
		c0.864,0,1.612,0.219,2.242,0.656c0.63,0.438,1.067,0.981,1.313,1.633s0.367,1.378,0.367,2.18h-5.633
		c0.036,0.688,0.254,1.175,0.652,1.461s0.819,0.43,1.262,0.43C86.735,216.292,87.318,215.995,87.907,215.401z M87.446,213.058
		c-0.056-0.422-0.221-0.781-0.495-1.078c-0.274-0.297-0.648-0.445-1.122-0.445c-0.886,0-1.401,0.508-1.547,1.523H87.446z"/>
	<path fill="#A0A0A0" d="M96.165,215.94v1.742h-5.32v-1.742h1.398v-4.078h-1.313v-1.742h3.523v1.922
		c0.136-0.552,0.444-1.03,0.926-1.434s1.051-0.605,1.707-0.605c0.109,0,0.239,0.003,0.391,0.008v2.281
		c-0.609,0-1.106,0.067-1.492,0.203s-0.703,0.433-0.953,0.891s-0.375,1-0.375,1.625v0.93H96.165z"/>
	<path fill="#A0A0A0" d="M98.517,217.683v-2.602h1.766c0.016,0.354,0.18,0.637,0.492,0.848s0.698,0.316,1.156,0.316
		c0.396,0,0.704-0.069,0.926-0.207s0.332-0.313,0.332-0.527c0-0.198-0.102-0.352-0.305-0.461s-0.602-0.214-1.195-0.313
		c-1.224-0.198-2.106-0.5-2.648-0.903s-0.813-0.938-0.813-1.604c0-0.625,0.255-1.151,0.766-1.581s1.188-0.645,2.031-0.645
		c0.683,0,1.32,0.126,1.914,0.379v-0.262h1.727v2.195h-1.727c-0.156-0.526-0.708-0.789-1.656-0.789
		c-0.698,0-1.047,0.192-1.047,0.578c0,0.146,0.071,0.257,0.215,0.332s0.509,0.165,1.098,0.27c0.933,0.161,1.63,0.322,2.094,0.484
		c0.464,0.161,0.835,0.428,1.113,0.801c0.278,0.372,0.418,0.819,0.418,1.34c0,0.739-0.265,1.345-0.793,1.816
		s-1.277,0.707-2.246,0.707c-0.901,0-1.519-0.184-1.852-0.551v0.379H98.517z"/>
	<path fill="#A0A0A0" d="M106.415,211.862v-1.742h3.563v5.82h1.125v1.742h-4.688v-1.742h1.148v-4.078H106.415z M107.478,207.952
		c0-0.363,0.129-0.675,0.387-0.935s0.569-0.39,0.934-0.39c0.37,0,0.683,0.13,0.938,0.39s0.383,0.571,0.383,0.935
		s-0.129,0.674-0.387,0.931s-0.569,0.386-0.934,0.386c-0.359,0-0.669-0.13-0.93-0.39S107.478,208.311,107.478,207.952z"/>
	<path fill="#A0A0A0" d="M115.993,217.854c-1.114,0-2.056-0.353-2.824-1.059s-1.152-1.673-1.152-2.902s0.384-2.196,1.152-2.902
		s1.71-1.059,2.824-1.059c1.12,0,2.063,0.353,2.828,1.059s1.148,1.673,1.148,2.902c0,1.214-0.379,2.177-1.137,2.891
		S117.129,217.854,115.993,217.854z M115.985,215.979c0.448,0,0.812-0.172,1.09-0.516s0.418-0.883,0.418-1.617
		c0-0.646-0.136-1.149-0.406-1.512s-0.638-0.543-1.102-0.543c-0.995,0-1.492,0.719-1.492,2.156c0,0.589,0.124,1.074,0.371,1.457
		S115.485,215.979,115.985,215.979z"/>
	<path fill="#A0A0A0" d="M121.149,211.862v-1.742h3.57v0.703c0.729-0.547,1.469-0.82,2.219-0.82c1.526,0,2.289,0.974,2.289,2.922
		v3.016h1.141v1.742h-3.555v-4.578c0-0.411-0.056-0.692-0.168-0.844s-0.296-0.227-0.551-0.227c-0.448,0-0.906,0.164-1.375,0.492
		v3.414h1.164v1.742h-4.734v-1.742h1.156v-4.078H121.149z"/>
	<path fill="#A0A0A0" d="M137.532,217.792l-1.984-5.93h-0.961v-1.742h4.117v1.742h-0.825l0.931,2.806l1.544-4.548h2.003l1.496,4.554
		l0.93-2.812h-0.852v-1.742h3.656v1.742h-0.945l-1.961,5.93h-2.094l-1.484-4.445l-1.461,4.445H137.532z"/>
	<path fill="#A0A0A0" d="M148.259,211.862v-1.742h3.563v5.82h1.125v1.742h-4.688v-1.742h1.148v-4.078H148.259z M149.321,207.952
		c0-0.363,0.129-0.675,0.387-0.935s0.569-0.39,0.934-0.39c0.37,0,0.683,0.13,0.938,0.39s0.383,0.571,0.383,0.935
		s-0.129,0.674-0.387,0.931s-0.569,0.386-0.934,0.386c-0.359,0-0.669-0.13-0.93-0.39S149.321,208.311,149.321,207.952z"/>
	<path fill="#A0A0A0" d="M153.837,217.683v-1.742h1.188v-7.383h-1.188v-1.742h3.602v9.125h1.086v1.742H153.837z"/>
	<path fill="#A0A0A0" d="M159.501,217.683v-1.742h1.188v-7.383h-1.188v-1.742h3.602v9.125h1.086v1.742H159.501z"/>
	<path fill="#A0A0A0" d="M178.188,215.94v1.742h-3.633v-0.645c-0.724,0.503-1.458,0.754-2.203,0.754
		c-0.729,0-1.301-0.205-1.715-0.614s-0.621-0.986-0.621-1.732v-3.583h-1.133v-1.742h3.539v4.711c0,0.375,0.058,0.632,0.172,0.77
		s0.323,0.207,0.625,0.207c0.406,0,0.852-0.18,1.336-0.539v-3.406h-1.164v-1.742h3.578v5.82H178.188z"/>
	<path fill="#A0A0A0" d="M179.149,211.862v-1.742h3.57v0.703c0.729-0.547,1.469-0.82,2.219-0.82c1.526,0,2.289,0.974,2.289,2.922
		v3.016h1.141v1.742h-3.555v-4.578c0-0.411-0.056-0.692-0.168-0.844s-0.296-0.227-0.551-0.227c-0.448,0-0.906,0.164-1.375,0.492
		v3.414h1.164v1.742h-4.734v-1.742h1.156v-4.078H179.149z"/>
	<path fill="#A0A0A0" d="M189.142,217.683v-1.59l4.444-4.449h-2.429v1.172h-1.648v-2.695h6.969v1.582l-4.441,4.457h2.848v-1.297
		h1.594v2.82H189.142z"/>
	<path fill="#A0A0A0" d="M197.743,211.862v-1.742h3.563v5.82h1.125v1.742h-4.688v-1.742h1.148v-4.078H197.743z M198.806,207.952
		c0-0.363,0.129-0.675,0.387-0.935s0.569-0.39,0.934-0.39c0.37,0,0.683,0.13,0.938,0.39s0.383,0.571,0.383,0.935
		s-0.129,0.674-0.387,0.931s-0.569,0.386-0.934,0.386c-0.359,0-0.669-0.13-0.93-0.39S198.806,208.311,198.806,207.952z"/>
	<path fill="#A0A0A0" d="M208.196,219.354v1.742h-5.203v-1.742h1.273v-7.492h-1.063v-1.742h3.477v0.949
		c0.672-0.711,1.422-1.066,2.25-1.066c1,0,1.788,0.397,2.363,1.191s0.863,1.72,0.863,2.777c0,1.12-0.297,2.047-0.891,2.781
		s-1.386,1.102-2.375,1.102c-0.808,0-1.544-0.315-2.211-0.945v2.445H208.196z M209.681,213.925c0-0.661-0.137-1.156-0.41-1.484
		s-0.634-0.492-1.082-0.492c-0.453,0-0.821,0.168-1.105,0.504s-0.426,0.837-0.426,1.504c0,0.599,0.141,1.081,0.422,1.445
		s0.656,0.547,1.125,0.547c0.433,0,0.786-0.164,1.063-0.492S209.681,214.617,209.681,213.925z"/>
	<path fill="#A0A0A0" d="M218.712,221.097v-1.742h1.453l0.504-1.345l-2.754-6.147h-1.094v-1.742h4.531v1.742h-0.891l1.259,3.405
		l1.343-3.405h-0.984v-1.742h3.977v1.742h-1.078l-3.625,9.234H218.712z"/>
	<path fill="#A0A0A0" d="M230.431,217.854c-1.114,0-2.056-0.353-2.824-1.059s-1.152-1.673-1.152-2.902s0.384-2.196,1.152-2.902
		s1.71-1.059,2.824-1.059c1.12,0,2.063,0.353,2.828,1.059s1.148,1.673,1.148,2.902c0,1.214-0.379,2.177-1.137,2.891
		S231.566,217.854,230.431,217.854z M230.423,215.979c0.448,0,0.812-0.172,1.09-0.516s0.418-0.883,0.418-1.617
		c0-0.646-0.136-1.149-0.406-1.512s-0.638-0.543-1.102-0.543c-0.995,0-1.492,0.719-1.492,2.156c0,0.589,0.124,1.074,0.371,1.457
		S229.923,215.979,230.423,215.979z"/>
	<path fill="#A0A0A0" d="M244.626,215.94v1.742h-3.633v-0.645c-0.724,0.503-1.458,0.754-2.203,0.754
		c-0.729,0-1.301-0.205-1.715-0.614s-0.621-0.986-0.621-1.732v-3.583h-1.133v-1.742h3.539v4.711c0,0.375,0.058,0.632,0.172,0.77
		s0.323,0.207,0.625,0.207c0.406,0,0.852-0.18,1.336-0.539v-3.406h-1.164v-1.742h3.578v5.82H244.626z"/>
	<path fill="#A0A0A0" d="M250.767,215.94v1.742h-5.32v-1.742h1.398v-4.078h-1.313v-1.742h3.523v1.922
		c0.136-0.552,0.444-1.03,0.926-1.434s1.051-0.605,1.707-0.605c0.109,0,0.239,0.003,0.391,0.008v2.281
		c-0.609,0-1.106,0.067-1.492,0.203s-0.703,0.433-0.953,0.891s-0.375,1-0.375,1.625v0.93H250.767z"/>
	<path fill="#A0A0A0" d="M261.384,215.94v1.742h-4.695v-1.742h1.094v-4.078h-1.016v-1.742h1.016v-0.695
		c0-0.797,0.246-1.462,0.738-1.996s1.226-0.801,2.199-0.801c1.183,0,2.023,0.354,2.523,1.063l-1.75,1.367
		c-0.156-0.542-0.38-0.813-0.672-0.813c-0.417,0-0.625,0.349-0.625,1.047v0.828h1.188v1.742h-1.188v4.078H261.384z"/>
	<path fill="#A0A0A0" d="M262.524,211.862v-1.742h3.563v5.82h1.125v1.742h-4.688v-1.742h1.148v-4.078H262.524z M263.587,207.952
		c0-0.363,0.129-0.675,0.387-0.935s0.569-0.39,0.934-0.39c0.37,0,0.683,0.13,0.938,0.39s0.383,0.571,0.383,0.935
		s-0.129,0.674-0.387,0.931s-0.569,0.386-0.934,0.386c-0.359,0-0.669-0.13-0.93-0.39S263.587,208.311,263.587,207.952z"/>
	<path fill="#A0A0A0" d="M268.103,217.683v-1.742h1.188v-7.383h-1.188v-1.742h3.602v9.125h1.086v1.742H268.103z"/>
	<path fill="#A0A0A0" d="M279.845,215.401l1.875,0.602c-0.786,1.234-2.016,1.852-3.688,1.852c-1.333,0-2.374-0.352-3.121-1.055
		s-1.121-1.628-1.121-2.773c0-1.167,0.386-2.141,1.156-2.922s1.753-1.172,2.945-1.172c0.864,0,1.612,0.219,2.242,0.656
		s1.067,0.981,1.313,1.633s0.367,1.378,0.367,2.18h-5.633c0.036,0.688,0.254,1.175,0.652,1.461s0.819,0.43,1.262,0.43
		C278.673,216.292,279.256,215.995,279.845,215.401z M279.384,213.058c-0.056-0.422-0.221-0.781-0.495-1.078
		s-0.648-0.445-1.122-0.445c-0.886,0-1.401,0.508-1.547,1.523H279.384z"/>
	<path fill="#A0A0A0" d="M295.454,215.94v1.742h-3.633v-0.598c-0.651,0.472-1.339,0.707-2.063,0.707
		c-0.75,0-1.397-0.214-1.941-0.641s-0.816-1-0.816-1.719c0-0.724,0.286-1.331,0.859-1.82s1.313-0.734,2.219-0.734
		c0.505,0,1.086,0.128,1.742,0.383V212.8c0-0.386-0.13-0.702-0.391-0.949s-0.609-0.371-1.047-0.371
		c-0.542,0-1.005,0.198-1.391,0.594l-1.945-0.352c0.563-1.192,1.784-1.789,3.664-1.789c0.729,0,1.333,0.082,1.813,0.246
		s0.836,0.376,1.07,0.637s0.399,0.546,0.496,0.855s0.145,0.813,0.145,1.512v2.758H295.454z M291.821,214.886
		c-0.583-0.364-1.05-0.547-1.398-0.547c-0.276,0-0.527,0.081-0.754,0.242s-0.34,0.396-0.34,0.703c0,0.276,0.091,0.513,0.273,0.711
		s0.417,0.297,0.703,0.297c0.448,0,0.953-0.263,1.516-0.789V214.886z"/>
	<path fill="#A0A0A0" d="M296.251,211.862v-1.742h3.57v0.703c0.729-0.547,1.469-0.82,2.219-0.82c1.526,0,2.289,0.974,2.289,2.922
		v3.016h1.141v1.742h-3.555v-4.578c0-0.411-0.056-0.692-0.168-0.844s-0.296-0.227-0.551-0.227c-0.448,0-0.906,0.164-1.375,0.492
		v3.414h1.164v1.742h-4.734v-1.742h1.156v-4.078H296.251z"/>
	<path fill="#A0A0A0" d="M315.399,215.94v1.742h-3.656v-0.9c-0.672,0.673-1.401,1.01-2.188,1.01c-0.942,0-1.724-0.383-2.344-1.148
		s-0.93-1.692-0.93-2.781c0-1.104,0.317-2.035,0.953-2.793s1.411-1.137,2.328-1.137c0.88,0,1.606,0.343,2.18,1.029v-2.404h-1.18
		v-1.742h3.594v9.125H315.399z M311.767,213.886c0-0.724-0.155-1.239-0.465-1.547s-0.663-0.461-1.059-0.461
		c-0.474,0-0.84,0.184-1.098,0.551s-0.387,0.851-0.387,1.449c0,0.567,0.128,1.046,0.383,1.434s0.625,0.582,1.109,0.582
		c0.401,0,0.754-0.157,1.059-0.473S311.767,214.594,311.767,213.886z"/>
	<path fill="#A0A0A0" d="M43.634,235.141v1.742h-5.32v-1.742h1.398v-4.078h-1.313v-1.742h3.523v1.922
		c0.135-0.552,0.444-1.03,0.926-1.434c0.481-0.403,1.051-0.605,1.707-0.605c0.109,0,0.239,0.003,0.391,0.008v2.281
		c-0.609,0-1.107,0.067-1.492,0.203c-0.386,0.136-0.703,0.433-0.953,0.891s-0.375,1-0.375,1.625v0.93H43.634z"/>
	<path fill="#A0A0A0" d="M51.72,234.602l1.875,0.602c-0.787,1.234-2.016,1.852-3.688,1.852c-1.333,0-2.374-0.352-3.121-1.055
		c-0.748-0.703-1.121-1.628-1.121-2.773c0-1.167,0.385-2.141,1.156-2.922c0.771-0.781,1.752-1.172,2.945-1.172
		c0.864,0,1.612,0.219,2.242,0.656c0.63,0.438,1.067,0.981,1.313,1.633c0.245,0.651,0.367,1.378,0.367,2.18h-5.633
		c0.036,0.688,0.254,1.175,0.652,1.461s0.819,0.43,1.262,0.43C50.548,235.492,51.131,235.195,51.72,234.602z M51.259,232.258
		c-0.056-0.422-0.221-0.781-0.495-1.078c-0.274-0.297-0.648-0.445-1.122-0.445c-0.886,0-1.401,0.508-1.547,1.523H51.259z"/>
	<path fill="#A0A0A0" d="M59.368,238.555v1.742h-5.203v-1.742h1.273v-7.492h-1.063v-1.742h3.477v0.949
		c0.672-0.711,1.422-1.066,2.25-1.066c1,0,1.788,0.397,2.363,1.191c0.575,0.794,0.863,1.72,0.863,2.777
		c0,1.12-0.297,2.047-0.891,2.781s-1.386,1.102-2.375,1.102c-0.808,0-1.544-0.315-2.211-0.945v2.445H59.368z M60.853,233.125
		c0-0.661-0.137-1.156-0.41-1.484s-0.634-0.492-1.082-0.492c-0.453,0-0.822,0.168-1.105,0.504c-0.284,0.336-0.426,0.837-0.426,1.504
		c0,0.599,0.141,1.081,0.422,1.445s0.656,0.547,1.125,0.547c0.432,0,0.786-0.164,1.063-0.492
		C60.714,234.328,60.853,233.817,60.853,233.125z"/>
	<path fill="#A0A0A0" d="M69.657,235.141v1.742h-5.32v-1.742h1.398v-4.078h-1.313v-1.742h3.523v1.922
		c0.135-0.552,0.444-1.03,0.926-1.434c0.481-0.403,1.051-0.605,1.707-0.605c0.109,0,0.239,0.003,0.391,0.008v2.281
		c-0.609,0-1.107,0.067-1.492,0.203c-0.386,0.136-0.703,0.433-0.953,0.891s-0.375,1-0.375,1.625v0.93H69.657z"/>
	<path fill="#A0A0A0" d="M75.665,237.055c-1.115,0-2.056-0.353-2.824-1.059c-0.769-0.706-1.152-1.673-1.152-2.902
		s0.384-2.196,1.152-2.902c0.768-0.706,1.709-1.059,2.824-1.059c1.12,0,2.063,0.353,2.828,1.059s1.148,1.673,1.148,2.902
		c0,1.214-0.379,2.177-1.137,2.891S76.8,237.055,75.665,237.055z M75.657,235.18c0.448,0,0.811-0.172,1.09-0.516
		c0.278-0.344,0.418-0.883,0.418-1.617c0-0.646-0.136-1.149-0.406-1.512c-0.271-0.362-0.638-0.543-1.102-0.543
		c-0.995,0-1.492,0.719-1.492,2.156c0,0.589,0.124,1.074,0.371,1.457C74.783,234.988,75.157,235.18,75.657,235.18z"/>
	<path fill="#A0A0A0" d="M80.876,231.063v-1.742h3.586v7.32c0,0.948-0.086,1.651-0.258,2.109s-0.508,0.819-1.008,1.082
		s-1.229,0.395-2.188,0.395c-0.354,0-0.644-0.013-0.867-0.039v-1.945c0.161,0.021,0.313,0.031,0.453,0.031
		c0.463,0,0.792-0.05,0.984-0.148c0.192-0.1,0.319-0.229,0.379-0.388c0.06-0.159,0.09-0.444,0.09-0.856v-5.818H80.876z
		 M81.86,227.203c0-0.359,0.13-0.669,0.391-0.93c0.26-0.261,0.57-0.391,0.93-0.391c0.364,0,0.676,0.129,0.934,0.387
		s0.387,0.569,0.387,0.934s-0.129,0.676-0.387,0.934s-0.569,0.387-0.934,0.387c-0.375,0-0.689-0.132-0.941-0.395
		C81.986,227.866,81.86,227.558,81.86,227.203z"/>
	<path fill="#A0A0A0" d="M92.579,234.602l1.875,0.602c-0.786,1.234-2.016,1.852-3.688,1.852c-1.333,0-2.374-0.352-3.121-1.055
		c-0.748-0.703-1.121-1.628-1.121-2.773c0-1.167,0.385-2.141,1.156-2.922c0.771-0.781,1.753-1.172,2.945-1.172
		c0.864,0,1.612,0.219,2.242,0.656s1.067,0.981,1.313,1.633s0.367,1.378,0.367,2.18h-5.633c0.036,0.688,0.254,1.175,0.652,1.461
		s0.819,0.43,1.262,0.43C91.407,235.492,91.99,235.195,92.579,234.602z M92.118,232.258c-0.056-0.422-0.221-0.781-0.495-1.078
		s-0.648-0.445-1.122-0.445c-0.886,0-1.401,0.508-1.547,1.523H92.118z"/>
	<path fill="#A0A0A0" d="M103.47,229.32v3.07h-1.719c-0.391-0.844-1.003-1.266-1.836-1.266c-0.531,0-0.954,0.176-1.27,0.527
		s-0.473,0.821-0.473,1.41c0,0.714,0.167,1.241,0.5,1.582s0.742,0.512,1.227,0.512c0.386,0,0.75-0.11,1.094-0.332
		s0.62-0.515,0.828-0.879l1.875,0.824c-0.698,1.523-1.922,2.285-3.672,2.285c-1.317,0-2.368-0.359-3.152-1.078
		s-1.176-1.68-1.176-2.883s0.384-2.152,1.152-2.848s1.663-1.043,2.684-1.043c0.817,0,1.581,0.247,2.289,0.742v-0.625H103.47z"/>
	<path fill="#A0A0A0" d="M104.399,231.063v-1.742h0.961v-1.188l2.414-1.734v2.922h1.391v1.742h-1.391v3.279
		c0,0.298,0.038,0.498,0.113,0.6s0.249,0.152,0.52,0.152c0.224,0,0.477-0.052,0.758-0.156v1.672c-0.62,0.255-1.227,0.383-1.82,0.383
		c-1.323,0-1.984-0.657-1.984-1.972v-3.958H104.399z"/>
	<path fill="#A0A0A0" d="M113.907,231.063v-1.742h0.961v-1.188l2.414-1.734v2.922h1.391v1.742h-1.391v3.279
		c0,0.298,0.038,0.498,0.113,0.6s0.249,0.152,0.52,0.152c0.224,0,0.477-0.052,0.758-0.156v1.672c-0.62,0.255-1.227,0.383-1.82,0.383
		c-1.323,0-1.984-0.657-1.984-1.972v-3.958H113.907z"/>
	<path fill="#A0A0A0" d="M119.548,236.883v-1.742h1.219v-7.383h-1.219v-1.742h3.625v3.914c0.761-0.531,1.477-0.797,2.148-0.797
		c1.547,0,2.32,0.93,2.32,2.789v3.219h1.109v1.742h-3.523v-4.852c0-0.354-0.063-0.598-0.191-0.73s-0.319-0.199-0.574-0.199
		c-0.359,0-0.789,0.159-1.289,0.477v3.563h1.078v1.742H119.548z"/>
	<path fill="#A0A0A0" d="M135.774,234.602l1.875,0.602c-0.786,1.234-2.016,1.852-3.688,1.852c-1.333,0-2.374-0.352-3.121-1.055
		s-1.121-1.628-1.121-2.773c0-1.167,0.386-2.141,1.156-2.922s1.753-1.172,2.945-1.172c0.864,0,1.612,0.219,2.242,0.656
		s1.067,0.981,1.313,1.633s0.367,1.378,0.367,2.18h-5.633c0.036,0.688,0.254,1.175,0.652,1.461s0.819,0.43,1.262,0.43
		C134.603,235.492,135.186,235.195,135.774,234.602z M135.313,232.258c-0.056-0.422-0.221-0.781-0.495-1.078
		s-0.648-0.445-1.122-0.445c-0.886,0-1.401,0.508-1.547,1.523H135.313z"/>
	<path fill="#A0A0A0" d="M152.001,235.141v1.742h-3.656v-0.9c-0.672,0.673-1.401,1.01-2.188,1.01c-0.942,0-1.724-0.383-2.344-1.148
		s-0.93-1.692-0.93-2.781c0-1.104,0.317-2.035,0.953-2.793s1.411-1.137,2.328-1.137c0.88,0,1.606,0.343,2.18,1.029v-2.404h-1.18
		v-1.742h3.594v9.125H152.001z M148.368,233.086c0-0.724-0.155-1.239-0.465-1.547s-0.663-0.461-1.059-0.461
		c-0.474,0-0.84,0.184-1.098,0.551s-0.387,0.851-0.387,1.449c0,0.567,0.128,1.046,0.383,1.434s0.625,0.582,1.109,0.582
		c0.401,0,0.754-0.157,1.059-0.473S148.368,233.794,148.368,233.086z"/>
	<path fill="#A0A0A0" d="M161.384,235.141v1.742h-3.633v-0.598c-0.651,0.472-1.339,0.707-2.063,0.707
		c-0.75,0-1.397-0.214-1.941-0.641s-0.816-1-0.816-1.719c0-0.724,0.286-1.331,0.859-1.82s1.313-0.734,2.219-0.734
		c0.505,0,1.086,0.128,1.742,0.383V232c0-0.386-0.13-0.702-0.391-0.949s-0.609-0.371-1.047-0.371c-0.542,0-1.005,0.198-1.391,0.594
		l-1.945-0.352c0.563-1.192,1.784-1.789,3.664-1.789c0.729,0,1.333,0.082,1.813,0.246s0.836,0.376,1.07,0.637
		s0.399,0.546,0.496,0.855s0.145,0.813,0.145,1.512v2.758H161.384z M157.751,234.086c-0.583-0.364-1.05-0.547-1.398-0.547
		c-0.276,0-0.527,0.081-0.754,0.242s-0.34,0.396-0.34,0.703c0,0.276,0.091,0.513,0.273,0.711s0.417,0.297,0.703,0.297
		c0.448,0,0.953-0.263,1.516-0.789V234.086z"/>
	<path fill="#A0A0A0" d="M161.915,231.063v-1.742h0.961v-1.188l2.414-1.734v2.922h1.391v1.742h-1.391v3.279
		c0,0.298,0.038,0.498,0.113,0.6s0.249,0.152,0.52,0.152c0.224,0,0.477-0.052,0.758-0.156v1.672c-0.62,0.255-1.227,0.383-1.82,0.383
		c-1.323,0-1.984-0.657-1.984-1.972v-3.958H161.915z"/>
	<path fill="#A0A0A0" d="M176.22,235.141v1.742h-3.633v-0.598c-0.651,0.472-1.339,0.707-2.063,0.707
		c-0.75,0-1.397-0.214-1.941-0.641s-0.816-1-0.816-1.719c0-0.724,0.286-1.331,0.859-1.82s1.313-0.734,2.219-0.734
		c0.505,0,1.086,0.128,1.742,0.383V232c0-0.386-0.13-0.702-0.391-0.949s-0.609-0.371-1.047-0.371c-0.542,0-1.005,0.198-1.391,0.594
		l-1.945-0.352c0.563-1.192,1.784-1.789,3.664-1.789c0.729,0,1.333,0.082,1.813,0.246s0.836,0.376,1.07,0.637
		s0.399,0.546,0.496,0.855s0.145,0.813,0.145,1.512v2.758H176.22z M172.587,234.086c-0.583-0.364-1.05-0.547-1.398-0.547
		c-0.276,0-0.527,0.081-0.754,0.242s-0.34,0.396-0.34,0.703c0,0.276,0.091,0.513,0.273,0.711s0.417,0.297,0.703,0.297
		c0.448,0,0.953-0.263,1.516-0.789V234.086z"/>
	<path fill="#A0A0A0" d="M183.399,236.992l-1.984-5.93h-0.961v-1.742h4.117v1.742h-0.825l0.931,2.806l1.544-4.548h2.003l1.496,4.554
		l0.93-2.812h-0.852v-1.742h3.656v1.742h-0.945l-1.961,5.93h-2.094l-1.484-4.445l-1.461,4.445H183.399z"/>
	<path fill="#A0A0A0" d="M194.126,231.063v-1.742h3.563v5.82h1.125v1.742h-4.688v-1.742h1.148v-4.078H194.126z M195.188,227.152
		c0-0.363,0.129-0.675,0.387-0.935s0.569-0.39,0.934-0.39c0.37,0,0.683,0.13,0.938,0.39s0.383,0.571,0.383,0.935
		s-0.129,0.674-0.387,0.931s-0.569,0.386-0.934,0.386c-0.359,0-0.669-0.13-0.93-0.39S195.188,227.511,195.188,227.152z"/>
	<path fill="#A0A0A0" d="M199.423,231.063v-1.742h0.961v-1.188l2.414-1.734v2.922h1.391v1.742h-1.391v3.279
		c0,0.298,0.038,0.498,0.113,0.6s0.249,0.152,0.52,0.152c0.224,0,0.477-0.052,0.758-0.156v1.672c-0.62,0.255-1.227,0.383-1.82,0.383
		c-1.323,0-1.984-0.657-1.984-1.972v-3.958H199.423z"/>
	<path fill="#A0A0A0" d="M205.063,236.883v-1.742h1.219v-7.383h-1.219v-1.742h3.625v3.914c0.761-0.531,1.477-0.797,2.148-0.797
		c1.547,0,2.32,0.93,2.32,2.789v3.219h1.109v1.742h-3.523v-4.852c0-0.354-0.063-0.598-0.191-0.73s-0.319-0.199-0.574-0.199
		c-0.359,0-0.789,0.159-1.289,0.477v3.563h1.078v1.742H205.063z"/>
	<path fill="#A0A0A0" d="M227.009,229.32v3.07h-1.719c-0.391-0.844-1.003-1.266-1.836-1.266c-0.531,0-0.954,0.176-1.27,0.527
		s-0.473,0.821-0.473,1.41c0,0.714,0.167,1.241,0.5,1.582s0.742,0.512,1.227,0.512c0.386,0,0.75-0.11,1.094-0.332
		s0.62-0.515,0.828-0.879l1.875,0.824c-0.698,1.523-1.922,2.285-3.672,2.285c-1.317,0-2.368-0.359-3.152-1.078
		s-1.176-1.68-1.176-2.883s0.384-2.152,1.152-2.848s1.663-1.043,2.684-1.043c0.817,0,1.581,0.247,2.289,0.742v-0.625H227.009z"/>
	<path fill="#A0A0A0" d="M232.22,237.055c-1.114,0-2.056-0.353-2.824-1.059s-1.152-1.673-1.152-2.902s0.384-2.196,1.152-2.902
		s1.71-1.059,2.824-1.059c1.12,0,2.063,0.353,2.828,1.059s1.148,1.673,1.148,2.902c0,1.214-0.379,2.177-1.137,2.891
		S233.355,237.055,232.22,237.055z M232.212,235.18c0.448,0,0.812-0.172,1.09-0.516s0.418-0.883,0.418-1.617
		c0-0.646-0.136-1.149-0.406-1.512s-0.638-0.543-1.102-0.543c-0.995,0-1.492,0.719-1.492,2.156c0,0.589,0.124,1.074,0.371,1.457
		S231.712,235.18,232.212,235.18z"/>
	<path fill="#A0A0A0" d="M242.556,235.141v1.742h-5.32v-1.742h1.398v-4.078h-1.313v-1.742h3.523v1.922
		c0.136-0.552,0.444-1.03,0.926-1.434s1.051-0.605,1.707-0.605c0.109,0,0.239,0.003,0.391,0.008v2.281
		c-0.609,0-1.106,0.067-1.492,0.203s-0.703,0.433-0.953,0.891s-0.375,1-0.375,1.625v0.93H242.556z"/>
	<path fill="#A0A0A0" d="M250.204,235.141v1.742h-5.32v-1.742h1.398v-4.078h-1.313v-1.742h3.523v1.922
		c0.136-0.552,0.444-1.03,0.926-1.434s1.051-0.605,1.707-0.605c0.109,0,0.239,0.003,0.391,0.008v2.281
		c-0.609,0-1.106,0.067-1.492,0.203s-0.703,0.433-0.953,0.891s-0.375,1-0.375,1.625v0.93H250.204z"/>
	<path fill="#A0A0A0" d="M258.29,234.602l1.875,0.602c-0.786,1.234-2.016,1.852-3.688,1.852c-1.333,0-2.374-0.352-3.121-1.055
		s-1.121-1.628-1.121-2.773c0-1.167,0.386-2.141,1.156-2.922s1.753-1.172,2.945-1.172c0.864,0,1.612,0.219,2.242,0.656
		s1.067,0.981,1.313,1.633s0.367,1.378,0.367,2.18h-5.633c0.036,0.688,0.254,1.175,0.652,1.461s0.819,0.43,1.262,0.43
		C257.118,235.492,257.701,235.195,258.29,234.602z M257.829,232.258c-0.056-0.422-0.221-0.781-0.495-1.078
		s-0.648-0.445-1.122-0.445c-0.886,0-1.401,0.508-1.547,1.523H257.829z"/>
	<path fill="#A0A0A0" d="M269.181,229.32v3.07h-1.719c-0.391-0.844-1.003-1.266-1.836-1.266c-0.531,0-0.954,0.176-1.27,0.527
		s-0.473,0.821-0.473,1.41c0,0.714,0.167,1.241,0.5,1.582s0.742,0.512,1.227,0.512c0.386,0,0.75-0.11,1.094-0.332
		s0.62-0.515,0.828-0.879l1.875,0.824c-0.698,1.523-1.922,2.285-3.672,2.285c-1.317,0-2.368-0.359-3.152-1.078
		s-1.176-1.68-1.176-2.883s0.384-2.152,1.152-2.848s1.663-1.043,2.684-1.043c0.817,0,1.581,0.247,2.289,0.742v-0.625H269.181z"/>
	<path fill="#A0A0A0" d="M270.11,231.063v-1.742h0.961v-1.188l2.414-1.734v2.922h1.391v1.742h-1.391v3.279
		c0,0.298,0.038,0.498,0.113,0.6s0.249,0.152,0.52,0.152c0.224,0,0.477-0.052,0.758-0.156v1.672c-0.62,0.255-1.227,0.383-1.82,0.383
		c-1.323,0-1.984-0.657-1.984-1.972v-3.958H270.11z"/>
	<path fill="#A0A0A0" d="M68.548,253.802l1.875,0.602c-0.787,1.234-2.016,1.852-3.688,1.852c-1.333,0-2.374-0.352-3.121-1.055
		c-0.748-0.703-1.121-1.628-1.121-2.773c0-1.167,0.385-2.141,1.156-2.922c0.771-0.781,1.752-1.172,2.945-1.172
		c0.864,0,1.612,0.219,2.242,0.656c0.63,0.438,1.067,0.981,1.313,1.633c0.245,0.651,0.367,1.378,0.367,2.18h-5.633
		c0.036,0.688,0.254,1.175,0.652,1.461s0.819,0.43,1.262,0.43C67.376,254.692,67.959,254.396,68.548,253.802z M68.087,251.458
		c-0.056-0.422-0.221-0.781-0.495-1.078c-0.274-0.297-0.648-0.445-1.122-0.445c-0.886,0-1.401,0.508-1.547,1.523H68.087z"/>
	<path fill="#A0A0A0" d="M71.626,250.263v-1.742h3.57v0.703c0.729-0.547,1.469-0.82,2.219-0.82c1.526,0,2.289,0.974,2.289,2.922
		v3.016h1.141v1.742H77.29v-4.578c0-0.411-0.056-0.692-0.168-0.844c-0.112-0.151-0.296-0.227-0.551-0.227
		c-0.448,0-0.906,0.164-1.375,0.492v3.414h1.164v1.742h-4.734v-1.742h1.156v-4.078H71.626z"/>
	<path fill="#A0A0A0" d="M89.438,248.521v3.07H87.72c-0.391-0.844-1.003-1.266-1.836-1.266c-0.531,0-0.955,0.176-1.27,0.527
		c-0.315,0.352-0.473,0.821-0.473,1.41c0,0.714,0.167,1.241,0.5,1.582c0.333,0.341,0.742,0.512,1.227,0.512
		c0.385,0,0.75-0.11,1.094-0.332s0.62-0.515,0.828-0.879l1.875,0.824c-0.698,1.523-1.922,2.285-3.672,2.285
		c-1.318,0-2.369-0.359-3.152-1.078c-0.784-0.719-1.176-1.68-1.176-2.883s0.384-2.152,1.152-2.848
		c0.768-0.695,1.663-1.043,2.684-1.043c0.817,0,1.581,0.247,2.289,0.742v-0.625H89.438z"/>
	<path fill="#A0A0A0" d="M94.649,256.255c-1.114,0-2.056-0.353-2.824-1.059s-1.152-1.673-1.152-2.902s0.384-2.196,1.152-2.902
		s1.71-1.059,2.824-1.059c1.12,0,2.063,0.353,2.828,1.059s1.148,1.673,1.148,2.902c0,1.214-0.379,2.177-1.137,2.891
		S95.785,256.255,94.649,256.255z M94.642,254.38c0.448,0,0.812-0.172,1.09-0.516s0.418-0.883,0.418-1.617
		c0-0.646-0.136-1.149-0.406-1.512s-0.638-0.543-1.102-0.543c-0.995,0-1.492,0.719-1.492,2.156c0,0.589,0.124,1.074,0.371,1.457
		S94.142,254.38,94.642,254.38z"/>
	<path fill="#A0A0A0" d="M108.954,254.341v1.742h-3.656v-0.9c-0.672,0.673-1.401,1.01-2.188,1.01c-0.942,0-1.724-0.383-2.344-1.148
		s-0.93-1.692-0.93-2.781c0-1.104,0.317-2.035,0.953-2.793s1.411-1.137,2.328-1.137c0.88,0,1.606,0.343,2.18,1.029v-2.404h-1.18
		v-1.742h3.594v9.125H108.954z M105.321,252.286c0-0.724-0.155-1.239-0.465-1.547s-0.663-0.461-1.059-0.461
		c-0.474,0-0.84,0.184-1.098,0.551s-0.387,0.851-0.387,1.449c0,0.567,0.128,1.046,0.383,1.434s0.625,0.582,1.109,0.582
		c0.401,0,0.754-0.157,1.059-0.473S105.321,252.994,105.321,252.286z"/>
	<path fill="#A0A0A0" d="M109.907,250.263v-1.742h3.563v5.82h1.125v1.742h-4.688v-1.742h1.148v-4.078H109.907z M110.97,246.353
		c0-0.363,0.129-0.675,0.387-0.935s0.569-0.39,0.934-0.39c0.37,0,0.683,0.13,0.938,0.39s0.383,0.571,0.383,0.935
		s-0.129,0.674-0.387,0.931s-0.569,0.386-0.934,0.386c-0.359,0-0.669-0.13-0.93-0.39S110.97,246.711,110.97,246.353z"/>
	<path fill="#A0A0A0" d="M115.47,250.263v-1.742h3.57v0.703c0.729-0.547,1.469-0.82,2.219-0.82c1.526,0,2.289,0.974,2.289,2.922
		v3.016h1.141v1.742h-3.555v-4.578c0-0.411-0.056-0.692-0.168-0.844s-0.296-0.227-0.551-0.227c-0.448,0-0.906,0.164-1.375,0.492
		v3.414h1.164v1.742h-4.734v-1.742h1.156v-4.078H115.47z"/>
	<path fill="#A0A0A0" d="M134.634,248.521v1.742h-1.25v5.591c0,2.497-1.317,3.745-3.953,3.745c-1.511,0-2.636-0.273-3.375-0.82
		l1.172-1.602c0.609,0.375,1.222,0.563,1.836,0.563c0.536,0,0.988-0.138,1.355-0.414s0.551-0.813,0.551-1.609v-0.578
		c-0.786,0.703-1.552,1.055-2.297,1.055c-0.875,0-1.621-0.366-2.238-1.098s-0.926-1.665-0.926-2.801
		c0-1.141,0.317-2.074,0.953-2.801s1.411-1.09,2.328-1.09c0.88,0,1.606,0.349,2.18,1.045v-0.928H134.634z M130.978,252.325
		c0-0.609-0.136-1.091-0.406-1.445s-0.641-0.531-1.109-0.531c-0.479,0-0.845,0.183-1.098,0.547s-0.379,0.833-0.379,1.406
		s0.132,1.04,0.395,1.402s0.624,0.543,1.082,0.543c0.422,0,0.78-0.168,1.074-0.504S130.978,252.935,130.978,252.325z"/>
	<path fill="#A0A0A0" d="M139.571,250.263v-1.742h3.563v5.82h1.125v1.742h-4.688v-1.742h1.148v-4.078H139.571z M140.634,246.353
		c0-0.363,0.129-0.675,0.387-0.935s0.569-0.39,0.934-0.39c0.37,0,0.683,0.13,0.938,0.39s0.383,0.571,0.383,0.935
		s-0.129,0.674-0.387,0.931s-0.569,0.386-0.934,0.386c-0.359,0-0.669-0.13-0.93-0.39S140.634,246.711,140.634,246.353z"/>
	<path fill="#A0A0A0" d="M145.134,250.263v-1.742h3.57v0.703c0.729-0.547,1.469-0.82,2.219-0.82c1.526,0,2.289,0.974,2.289,2.922
		v3.016h1.141v1.742h-3.555v-4.578c0-0.411-0.056-0.692-0.168-0.844s-0.296-0.227-0.551-0.227c-0.448,0-0.906,0.164-1.375,0.492
		v3.414h1.164v1.742h-4.734v-1.742h1.156v-4.078H145.134z"/>
	<path fill="#A0A0A0" d="M158.454,259.231v-1.969c0.308,0.089,0.578,0.133,0.813,0.133c0.433,0,0.742-0.12,0.93-0.359
		s0.281-0.661,0.281-1.266v-8.719h-1.617v-1.836h5.922v1.836h-1.477v8.82c0,1.208-0.293,2.103-0.879,2.684s-1.366,0.871-2.34,0.871
		C159.598,259.427,159.053,259.361,158.454,259.231z"/>
	<path fill="#A0A0A0" d="M173.681,254.341v1.742h-3.633v-0.598c-0.651,0.472-1.339,0.707-2.063,0.707
		c-0.75,0-1.397-0.214-1.941-0.641s-0.816-1-0.816-1.719c0-0.724,0.286-1.331,0.859-1.82s1.313-0.734,2.219-0.734
		c0.505,0,1.086,0.128,1.742,0.383V251.2c0-0.386-0.13-0.702-0.391-0.949s-0.609-0.371-1.047-0.371
		c-0.542,0-1.005,0.198-1.391,0.594l-1.945-0.352c0.563-1.192,1.784-1.789,3.664-1.789c0.729,0,1.333,0.082,1.813,0.246
		s0.836,0.376,1.07,0.637s0.399,0.546,0.496,0.855s0.145,0.813,0.145,1.512v2.758H173.681z M170.048,253.286
		c-0.583-0.364-1.05-0.547-1.398-0.547c-0.276,0-0.527,0.081-0.754,0.242s-0.34,0.396-0.34,0.703c0,0.276,0.091,0.513,0.273,0.711
		s0.417,0.297,0.703,0.297c0.448,0,0.953-0.263,1.516-0.789V253.286z"/>
	<path fill="#A0A0A0" d="M177.204,256.192l-2.555-5.93h-1.094v-1.742h4.586v1.742h-0.94l1.185,3.442l1.39-3.442h-0.993v-1.742h4.008
		v1.742h-1.078l-2.453,5.93H177.204z"/>
	<path fill="#A0A0A0" d="M191.618,254.341v1.742h-3.633v-0.598c-0.651,0.472-1.339,0.707-2.063,0.707
		c-0.75,0-1.397-0.214-1.941-0.641s-0.816-1-0.816-1.719c0-0.724,0.286-1.331,0.859-1.82s1.313-0.734,2.219-0.734
		c0.505,0,1.086,0.128,1.742,0.383V251.2c0-0.386-0.13-0.702-0.391-0.949s-0.609-0.371-1.047-0.371
		c-0.542,0-1.005,0.198-1.391,0.594l-1.945-0.352c0.563-1.192,1.784-1.789,3.664-1.789c0.729,0,1.333,0.082,1.813,0.246
		s0.836,0.376,1.07,0.637s0.399,0.546,0.496,0.855s0.145,0.813,0.145,1.512v2.758H191.618z M187.985,253.286
		c-0.583-0.364-1.05-0.547-1.398-0.547c-0.276,0-0.527,0.081-0.754,0.242s-0.34,0.396-0.34,0.703c0,0.276,0.091,0.513,0.273,0.711
		s0.417,0.297,0.703,0.297c0.448,0,0.953-0.263,1.516-0.789V253.286z"/>
	<path fill="#A0A0A0" d="M192.603,256.083v-3.703h1.844c0.021,0.677,0.198,1.176,0.531,1.496s0.714,0.48,1.141,0.48
		c0.333,0,0.614-0.116,0.844-0.348s0.344-0.504,0.344-0.816c0-0.333-0.112-0.613-0.336-0.84s-0.633-0.484-1.228-0.774
		c-1.258-0.604-2.11-1.14-2.56-1.604c-0.449-0.465-0.674-1.091-0.674-1.879c0-0.949,0.297-1.685,0.891-2.207
		c0.594-0.521,1.269-0.782,2.023-0.782c0.864,0,1.534,0.337,2.008,1.012v-0.902h1.836v3.305h-1.836
		c-0.058-0.511-0.233-0.905-0.527-1.184s-0.637-0.418-1.027-0.418c-0.302,0-0.558,0.081-0.766,0.242s-0.313,0.372-0.313,0.633
		c0,0.224,0.086,0.437,0.258,0.637s0.675,0.484,1.509,0.853c0.804,0.357,1.419,0.681,1.849,0.971
		c0.429,0.289,0.769,0.664,1.018,1.126c0.25,0.461,0.375,0.994,0.375,1.599c0,1.074-0.313,1.882-0.938,2.424
		s-1.364,0.813-2.219,0.813c-0.953,0-1.688-0.353-2.203-1.059v0.926H192.603z"/>
	<path fill="#A0A0A0" d="M208.72,248.521v3.07h-1.719c-0.391-0.844-1.003-1.266-1.836-1.266c-0.531,0-0.954,0.176-1.27,0.527
		s-0.473,0.821-0.473,1.41c0,0.714,0.167,1.241,0.5,1.582s0.742,0.512,1.227,0.512c0.386,0,0.75-0.11,1.094-0.332
		s0.62-0.515,0.828-0.879l1.875,0.824c-0.698,1.523-1.922,2.285-3.672,2.285c-1.317,0-2.368-0.359-3.152-1.078
		s-1.176-1.68-1.176-2.883s0.384-2.152,1.152-2.848s1.663-1.043,2.684-1.043c0.817,0,1.581,0.247,2.289,0.742v-0.625H208.72z"/>
	<path fill="#A0A0A0" d="M215.095,254.341v1.742h-5.32v-1.742h1.398v-4.078h-1.313v-1.742h3.523v1.922
		c0.136-0.552,0.444-1.03,0.926-1.434s1.051-0.605,1.707-0.605c0.109,0,0.239,0.003,0.391,0.008v2.281
		c-0.609,0-1.106,0.067-1.492,0.203s-0.703,0.433-0.953,0.891s-0.375,1-0.375,1.625v0.93H215.095z"/>
	<path fill="#A0A0A0" d="M217.587,250.263v-1.742h3.563v5.82h1.125v1.742h-4.688v-1.742h1.148v-4.078H217.587z M218.649,246.353
		c0-0.363,0.129-0.675,0.387-0.935s0.569-0.39,0.934-0.39c0.37,0,0.683,0.13,0.938,0.39s0.383,0.571,0.383,0.935
		s-0.129,0.674-0.387,0.931s-0.569,0.386-0.934,0.386c-0.359,0-0.669-0.13-0.93-0.39S218.649,246.711,218.649,246.353z"/>
	<path fill="#A0A0A0" d="M228.04,257.755v1.742h-5.203v-1.742h1.273v-7.492h-1.063v-1.742h3.477v0.949
		c0.672-0.711,1.422-1.066,2.25-1.066c1,0,1.788,0.397,2.363,1.191s0.863,1.72,0.863,2.777c0,1.12-0.297,2.047-0.891,2.781
		s-1.386,1.102-2.375,1.102c-0.808,0-1.544-0.315-2.211-0.945v2.445H228.04z M229.524,252.325c0-0.661-0.137-1.156-0.41-1.484
		s-0.634-0.492-1.082-0.492c-0.453,0-0.821,0.168-1.105,0.504s-0.426,0.837-0.426,1.504c0,0.599,0.141,1.081,0.422,1.445
		s0.656,0.547,1.125,0.547c0.433,0,0.786-0.164,1.063-0.492S229.524,253.018,229.524,252.325z"/>
	<path fill="#A0A0A0" d="M232.884,250.263v-1.742h0.961v-1.188l2.414-1.734v2.922h1.391v1.742h-1.391v3.279
		c0,0.298,0.038,0.498,0.113,0.6s0.249,0.152,0.52,0.152c0.224,0,0.477-0.052,0.758-0.156v1.672c-0.62,0.255-1.227,0.383-1.82,0.383
		c-1.323,0-1.984-0.657-1.984-1.972v-3.958H232.884z"/>
</g>
<g>
	<path d="M38.912,0v-5.203h3.531c0.031,0.708,0.359,1.273,0.984,1.695s1.396,0.633,2.313,0.633c0.792,0,1.409-0.138,1.852-0.414
		c0.442-0.276,0.664-0.627,0.664-1.055c0-0.396-0.203-0.703-0.609-0.922s-1.203-0.428-2.391-0.626c-2.447-0.398-4.213-1-5.297-1.807
		c-1.083-0.807-1.625-1.876-1.625-3.209c0-1.25,0.51-2.304,1.531-3.163c1.021-0.859,2.375-1.289,4.063-1.289
		c1.364,0,2.641,0.253,3.828,0.758v-0.523h3.453v4.391h-3.453c-0.313-1.052-1.417-1.578-3.313-1.578
		c-1.396,0-2.094,0.386-2.094,1.156c0,0.292,0.143,0.513,0.43,0.664c0.286,0.151,1.018,0.331,2.195,0.539
		c1.864,0.322,3.26,0.646,4.188,0.968c0.927,0.323,1.669,0.857,2.227,1.602c0.557,0.745,0.836,1.638,0.836,2.68
		c0,1.479-0.529,2.69-1.586,3.633c-1.058,0.943-2.555,1.414-4.492,1.414c-1.802,0-3.037-0.367-3.703-1.102V0H38.912z"/>
	<path d="M54.24,0v-3.484h2.438V-18.25H54.24v-3.484h7.25v7.828c1.521-1.063,2.953-1.594,4.297-1.594
		c3.094,0,4.641,1.859,4.641,5.578v6.438h2.219V0h-7.047v-9.703c0-0.708-0.128-1.195-0.383-1.461
		c-0.255-0.266-0.638-0.398-1.148-0.398c-0.719,0-1.578,0.318-2.578,0.953v7.125h2.156V0H54.24z"/>
	<path d="M84.287,3.344v3.484H73.88V3.344h2.547v-14.984h-2.125v-3.484h6.953v1.898c1.344-1.422,2.844-2.133,4.5-2.133
		c2,0,3.575,0.794,4.727,2.383c1.151,1.589,1.727,3.44,1.727,5.555c0,2.24-0.594,4.094-1.781,5.563s-2.771,2.203-4.75,2.203
		c-1.615,0-3.089-0.63-4.422-1.891v4.891H84.287z M87.255-7.516c0-1.323-0.273-2.313-0.82-2.969s-1.269-0.984-2.164-0.984
		c-0.906,0-1.644,0.336-2.211,1.008c-0.568,0.672-0.852,1.675-0.852,3.008c0,1.198,0.281,2.162,0.844,2.891
		c0.563,0.729,1.313,1.094,2.25,1.094c0.864,0,1.573-0.328,2.125-0.984C86.979-5.109,87.255-6.13,87.255-7.516z"/>
	<path fill="#D32800" d="M116.337-9.271L116.062,0H95.614c0-2.784,0.226-4.941,0.677-6.472c0.451-1.53,1.193-3.014,2.227-4.452
		c1.032-1.438,2.474-3.014,4.326-4.728c2.433-2.233,4.035-3.875,4.808-4.923c0.772-1.047,1.159-2.229,1.159-3.545
		c0-0.979-0.291-1.786-0.872-2.421c-0.582-0.634-1.308-0.952-2.18-0.952c-1.27,0-2.207,0.524-2.812,1.572s-0.952,2.758-1.044,5.129
		l-5.852-0.275c0-3.075,0.459-5.393,1.377-6.954s2.165-2.692,3.741-3.396c1.576-0.704,3.289-1.056,5.141-1.056
		c3.044,0,5.435,0.842,7.172,2.524c1.736,1.683,2.604,3.779,2.604,6.288c0,1.347-0.264,2.59-0.792,3.729
		c-0.527,1.14-1.193,2.097-1.996,2.869c-0.804,0.772-2.223,1.886-4.257,3.339c-3.06,2.188-4.98,3.924-5.76,5.209
		s-1.239,2.417-1.377,3.396h9.317v-4.154H116.337z"/>
	<path d="M138.766-15.125v3.484h-2.5v11.181c0,4.994-2.636,7.491-7.906,7.491c-3.021,0-5.271-0.547-6.75-1.641l2.344-3.203
		c1.219,0.75,2.442,1.125,3.672,1.125c1.073,0,1.977-0.276,2.711-0.828c0.734-0.552,1.102-1.625,1.102-3.219v-1.156
		c-1.573,1.406-3.104,2.109-4.594,2.109c-1.75,0-3.242-0.731-4.477-2.195c-1.234-1.463-1.852-3.331-1.852-5.602
		c0-2.281,0.635-4.148,1.906-5.602c1.271-1.453,2.823-2.18,4.656-2.18c1.76,0,3.213,0.697,4.359,2.09v-1.855H138.766z
		 M131.454-7.516c0-1.219-0.271-2.182-0.813-2.891c-0.542-0.708-1.281-1.063-2.219-1.063c-0.958,0-1.69,0.365-2.195,1.094
		c-0.505,0.729-0.758,1.667-0.758,2.813c0,1.146,0.263,2.081,0.789,2.805c0.526,0.724,1.247,1.086,2.164,1.086
		c0.844,0,1.56-0.336,2.148-1.008C131.159-5.352,131.454-6.297,131.454-7.516z"/>
	<path d="M151.985-4.563l3.75,1.203c-1.573,2.469-4.031,3.703-7.375,3.703c-2.667,0-4.748-0.703-6.242-2.109
		c-1.495-1.406-2.242-3.255-2.242-5.547c0-2.333,0.771-4.281,2.313-5.844c1.542-1.563,3.505-2.344,5.891-2.344
		c1.729,0,3.224,0.438,4.484,1.313c1.26,0.875,2.135,1.964,2.625,3.266c0.489,1.302,0.734,2.755,0.734,4.359h-11.266
		c0.073,1.375,0.508,2.349,1.305,2.922c0.797,0.573,1.638,0.859,2.523,0.859C149.641-2.781,150.808-3.375,151.985-4.563z
		 M151.063-9.25c-0.112-0.844-0.442-1.563-0.99-2.156c-0.548-0.594-1.296-0.891-2.244-0.891c-1.771,0-2.802,1.016-3.094,3.047
		H151.063z"/>
	<path d="M166.172,0.344c-2.229,0-4.111-0.706-5.648-2.117c-1.536-1.411-2.304-3.346-2.304-5.805c0-2.458,0.768-4.393,2.304-5.805
		c1.537-1.411,3.42-2.117,5.648-2.117c2.24,0,4.125,0.706,5.656,2.117c1.531,1.412,2.297,3.347,2.297,5.805
		c0,2.427-0.758,4.354-2.273,5.781C170.336-0.37,168.443,0.344,166.172,0.344z M166.156-3.406c0.896,0,1.623-0.344,2.18-1.031
		c0.558-0.688,0.836-1.766,0.836-3.234c0-1.292-0.271-2.299-0.813-3.023c-0.541-0.724-1.275-1.086-2.203-1.086
		c-1.989,0-2.984,1.438-2.984,4.313c0,1.177,0.248,2.148,0.742,2.914C164.409-3.789,165.156-3.406,166.156-3.406z"/>
	<path d="M176.594-11.641v-3.484h7.172v14.641c0,1.896-0.172,3.302-0.516,4.219c-0.344,0.917-1.016,1.638-2.016,2.164
		c-1,0.526-2.458,0.789-4.375,0.789c-0.708,0-1.286-0.026-1.734-0.078V2.719c0.323,0.042,0.625,0.063,0.906,0.063
		c0.928,0,1.584-0.099,1.969-0.297c0.386-0.199,0.639-0.457,0.758-0.774c0.12-0.318,0.18-0.889,0.18-1.713v-11.638H176.594z
		 M178.563-19.359c0-0.719,0.261-1.338,0.781-1.859c0.521-0.521,1.141-0.781,1.859-0.781c0.729,0,1.352,0.258,1.867,0.773
		s0.773,1.138,0.773,1.867c0,0.729-0.258,1.352-0.773,1.867s-1.138,0.773-1.867,0.773c-0.75,0-1.377-0.263-1.883-0.789
		C178.815-18.034,178.563-18.651,178.563-19.359z"/>
	<path d="M188.531,0v-5.203h3.531c0.031,0.708,0.359,1.273,0.984,1.695s1.396,0.633,2.313,0.633c0.791,0,1.408-0.138,1.852-0.414
		c0.443-0.276,0.664-0.627,0.664-1.055c0-0.396-0.203-0.703-0.609-0.922s-1.203-0.428-2.391-0.626c-2.447-0.398-4.213-1-5.297-1.807
		c-1.082-0.807-1.625-1.876-1.625-3.209c0-1.25,0.51-2.304,1.531-3.163s2.375-1.289,4.063-1.289c1.365,0,2.641,0.253,3.828,0.758
		v-0.523h3.453v4.391h-3.453c-0.313-1.052-1.416-1.578-3.313-1.578c-1.396,0-2.094,0.386-2.094,1.156
		c0,0.292,0.143,0.513,0.43,0.664c0.287,0.151,1.018,0.331,2.195,0.539c1.865,0.322,3.26,0.646,4.188,0.968s1.67,0.857,2.227,1.602
		c0.557,0.745,0.836,1.638,0.836,2.68c0,1.479-0.529,2.69-1.586,3.633s-2.555,1.414-4.492,1.414c-1.803,0-3.037-0.367-3.703-1.102V0
		H188.531z"/>
	<path d="M212.156,0.344c-2.229,0-4.111-0.706-5.648-2.117c-1.537-1.411-2.305-3.346-2.305-5.805c0-2.458,0.768-4.393,2.305-5.805
		c1.537-1.411,3.42-2.117,5.648-2.117c2.24,0,4.125,0.706,5.656,2.117c1.531,1.412,2.297,3.347,2.297,5.805
		c0,2.427-0.758,4.354-2.273,5.781C216.32-0.37,214.428,0.344,212.156,0.344z M212.141-3.406c0.896,0,1.623-0.344,2.18-1.031
		s0.836-1.766,0.836-3.234c0-1.292-0.271-2.299-0.813-3.023c-0.541-0.724-1.275-1.086-2.203-1.086c-1.99,0-2.984,1.438-2.984,4.313
		c0,1.177,0.248,2.148,0.742,2.914S211.141-3.406,212.141-3.406z"/>
	<path d="M222.469-11.641v-3.484h7.141v1.406c1.459-1.094,2.938-1.641,4.438-1.641c3.053,0,4.578,1.948,4.578,5.844v6.031h2.281V0
		h-7.109v-9.156c0-0.823-0.111-1.385-0.336-1.688c-0.225-0.302-0.592-0.453-1.102-0.453c-0.896,0-1.813,0.328-2.75,0.984v6.828
		h2.328V0h-9.469v-3.484h2.313v-8.156H222.469z"/>
	<path d="M244.391,0v-5.234h5.219V0H244.391z"/>
	<path d="M253.906-11.641v-3.484h7.172v14.641c0,1.896-0.172,3.302-0.516,4.219c-0.344,0.917-1.016,1.638-2.016,2.164
		c-1,0.526-2.459,0.789-4.375,0.789c-0.709,0-1.287-0.026-1.734-0.078V2.719c0.322,0.042,0.625,0.063,0.906,0.063
		c0.928,0,1.584-0.099,1.969-0.297c0.385-0.199,0.639-0.457,0.758-0.774c0.119-0.318,0.18-0.889,0.18-1.713v-11.638H253.906z
		 M255.875-19.359c0-0.719,0.26-1.338,0.781-1.859c0.521-0.521,1.141-0.781,1.859-0.781c0.729,0,1.352,0.258,1.867,0.773
		s0.773,1.138,0.773,1.867c0,0.729-0.258,1.352-0.773,1.867s-1.139,0.773-1.867,0.773c-0.75,0-1.377-0.263-1.883-0.789
		C256.127-18.034,255.875-18.651,255.875-19.359z"/>
	<path d="M265.844,0v-5.203h3.531c0.031,0.708,0.359,1.273,0.984,1.695s1.396,0.633,2.313,0.633c0.791,0,1.408-0.138,1.852-0.414
		c0.443-0.276,0.664-0.627,0.664-1.055c0-0.396-0.203-0.703-0.609-0.922s-1.203-0.428-2.391-0.626c-2.447-0.398-4.213-1-5.297-1.807
		c-1.082-0.807-1.625-1.876-1.625-3.209c0-1.25,0.51-2.304,1.531-3.163s2.375-1.289,4.063-1.289c1.365,0,2.641,0.253,3.828,0.758
		v-0.523h3.453v4.391h-3.453c-0.313-1.052-1.416-1.578-3.313-1.578c-1.396,0-2.094,0.386-2.094,1.156
		c0,0.292,0.143,0.513,0.43,0.664c0.287,0.151,1.018,0.331,2.195,0.539c1.865,0.322,3.26,0.646,4.188,0.968s1.67,0.857,2.227,1.602
		c0.557,0.745,0.836,1.638,0.836,2.68c0,1.479-0.529,2.69-1.586,3.633s-2.555,1.414-4.492,1.414c-1.803,0-3.037-0.367-3.703-1.102V0
		H265.844z"/>
</g>
</svg>
